<svg width="32" height="32" viewBox="0 0 32 32" fill="none" xmlns="http://www.w3.org/2000/svg">
<path d="M26 2H6C3.79086 2 2 3.79086 2 6V26C2 28.2091 3.79086 30 6 30H26C28.2091 30 30 28.2091 30 26V6C30 3.79086 28.2091 2 26 2Z" fill="white"/>
<path d="M26 2H6C4.93913 2 3.92172 2.42143 3.17157 3.17157C2.42143 3.92172 2 4.93913 2 6V26C2 27.0609 2.42143 28.0783 3.17157 28.8284C3.92172 29.5786 4.93913 30 6 30H17V19.17H13.32V14.93H17V11.81C17 8.2 19.21 6.23 22.43 6.23C23.5187 6.22843 24.6067 6.28183 25.69 6.39V10.17H23.43C21.68 10.17 21.33 11 21.33 12.23V14.93H25.53L25 19.17H21.31V30H26C27.0609 30 28.0783 29.5786 28.8284 28.8284C29.5786 28.0783 30 27.0609 30 26V6C30 4.93913 29.5786 3.92172 28.8284 3.17157C28.0783 2.42143 27.0609 2 26 2Z" fill="#333333"/>
</svg>
