<svg width="32" height="32" viewBox="0 0 32 32" fill="none" xmlns="http://www.w3.org/2000/svg">
<path d="M24.9999 3.3999H6.9999C5.01168 3.3999 3.3999 5.01168 3.3999 6.9999V24.9999C3.3999 26.9881 5.01168 28.5999 6.9999 28.5999H24.9999C26.9881 28.5999 28.5999 26.9881 28.5999 24.9999V6.9999C28.5999 5.01168 26.9881 3.3999 24.9999 3.3999Z" fill="white"/>
<path d="M26 2H6C4.93913 2 3.92172 2.42143 3.17157 3.17157C2.42143 3.92172 2 4.93913 2 6V26C2 27.0609 2.42143 28.0783 3.17157 28.8284C3.92172 29.5786 4.93913 30 6 30H26C27.0609 30 28.0783 29.5786 28.8284 28.8284C29.5786 28.0783 30 27.0609 30 26V6C30 4.93913 29.5786 3.92172 28.8284 3.17157C28.0783 2.42143 27.0609 2 26 2ZM10.31 25.86H6.15V12.5H10.31V25.86ZM8.23 10.67C7.75335 10.67 7.2874 10.5287 6.89108 10.2638C6.49475 9.99903 6.18586 9.62264 6.00345 9.18227C5.82104 8.7419 5.77332 8.25733 5.86631 7.78983C5.9593 7.32234 6.18883 6.89292 6.52587 6.55587C6.86292 6.21883 7.29234 5.9893 7.75983 5.89631C8.22733 5.80332 8.7119 5.85104 9.15227 6.03345C9.59264 6.21586 9.96903 6.52475 10.2338 6.92108C10.4987 7.3174 10.64 7.78335 10.64 8.26C10.6413 8.57686 10.5799 8.89084 10.4592 9.18383C10.3386 9.47682 10.1611 9.74302 9.93708 9.96708C9.71302 10.1911 9.44682 10.3686 9.15383 10.4892C8.86084 10.6099 8.54686 10.6713 8.23 10.67ZM25.86 25.86H21.71V19.36C21.71 17.81 21.71 15.82 19.55 15.82C17.39 15.82 17.06 17.51 17.06 19.25V25.86H12.91V12.5H16.91V14.32H17C17.3993 13.6396 17.9757 13.0803 18.6678 12.7017C19.3599 12.3231 20.1417 12.1393 20.93 12.17C25.13 12.17 25.93 14.93 25.93 18.53L25.86 25.86Z" fill="#333333"/>
</svg>
