<svg width="24" height="24" viewBox="0 0 24 24" fill="none" xmlns="http://www.w3.org/2000/svg">
<path d="M5.704 2.979C6.398 3.492 6.961 4.143 7.471 4.999C7.917 5.746 8.908 7.826 8 9C6.973 10.328 4 10.776 4 12C4 12.921 5.304 13.972 6 15C7.047 16.546 6.571 18.044 6 19C5.704 19.496 5.231 19.92 4.707 20.234" stroke="#462686" stroke-width="2" stroke-miterlimit="10"/>
<path d="M20.668 5.22706C18.509 6.26206 15.542 6.96106 15 7.00006C13.955 7.07506 13.8 6.21606 13 5.00006C12.4 4.08806 11 2.94706 11 2.00006C11 1.62906 11.036 1.32806 11.131 1.03406" stroke="#462686" stroke-width="2" stroke-miterlimit="10"/>
<path d="M12 23C18.0751 23 23 18.0751 23 12C23 5.92487 18.0751 1 12 1C5.92487 1 1 5.92487 1 12C1 18.0751 5.92487 23 12 23Z" stroke="#462686" stroke-width="2" stroke-miterlimit="10" stroke-linecap="square"/>
<path d="M19.014 12.903C19.056 15.987 15.042 19.833 13 19C11.21 18.27 12.473 16.862 12.014 12.903C11.823 11.257 13.581 9.90295 15.514 9.90295C17.447 9.90295 18.992 11.247 19.014 12.903Z" stroke="#462686" stroke-width="2" stroke-miterlimit="10"/>
</svg>
