<svg width="35" height="36" viewBox="0 0 35 36" fill="none" xmlns="http://www.w3.org/2000/svg">
<g clip-path="url(#clip0)">
<path fill-rule="evenodd" clip-rule="evenodd" d="M0 4.01424L20.5287 0.00585938L20.4574 35.9938L0 31.7024V4.01424ZM7.27894 22.7029C5.72644 20.8659 5.29378 17.9793 6.03694 15.5814C7.07024 12.2471 9.69168 11.1202 11.8855 11.8921C13.1377 12.3346 14.2525 13.3997 14.848 15.0309C15.1331 15.813 15.2858 16.7083 15.296 17.6191C15.3163 19.2554 14.7564 21.1798 13.6467 22.5228C11.9415 24.581 9.05032 24.792 7.28403 22.7029H7.27894ZM8.87725 20.9585C8.11373 19.8111 7.90503 18.0101 8.26643 16.5128C8.77036 14.434 10.0582 13.729 11.1322 14.2127C11.7481 14.4906 12.2928 15.1544 12.5829 16.1732C12.7203 16.662 12.7967 17.2177 12.8018 17.7889C12.812 18.8077 12.5371 20.0118 11.9924 20.8505C11.1576 22.1369 9.74258 22.2655 8.87725 20.9637V20.9585ZM21.8674 7.5904H33.7835C34.4503 7.5904 34.9949 8.14097 34.9949 8.81504V9.25756L25.629 15.6432C25.5068 15.7255 25.2065 15.9622 24.9571 16.1217C24.5906 16.3636 24.5652 16.3173 24.1783 16.096C23.5828 15.7615 22.5545 15.0514 21.8623 14.5678V7.5904H21.8674ZM35 12.0928V24.9772C35 26.0063 34.1652 26.8553 33.1421 26.8553H21.8674V17.3258C22.5444 17.7786 23.4453 18.3755 24.0001 18.7202C24.4481 18.9981 24.5295 19.1267 25.0284 18.8334C25.2574 18.6996 25.4814 18.5247 25.6341 18.4218L35 12.0979V12.0928Z" fill="#0072C6"/>
</g>
<defs>
<clipPath id="clip0">
<rect width="35" height="36" fill="white"/>
</clipPath>
</defs>
</svg>
