<svg width="32" height="32" viewBox="0 0 32 32" fill="none" xmlns="http://www.w3.org/2000/svg">
<path d="M24.9999 3.3999H6.9999C5.01168 3.3999 3.3999 5.01168 3.3999 6.9999V24.9999C3.3999 26.9881 5.01168 28.5999 6.9999 28.5999H24.9999C26.9881 28.5999 28.5999 26.9881 28.5999 24.9999V6.9999C28.5999 5.01168 26.9881 3.3999 24.9999 3.3999Z" fill="white"/>
<path d="M26 2H6C4.93913 2 3.92172 2.42143 3.17157 3.17157C2.42143 3.92172 2 4.93913 2 6V26C2 27.0609 2.42143 28.0783 3.17157 28.8284C3.92172 29.5786 4.93913 30 6 30H26C27.0609 30 28.0783 29.5786 28.8284 28.8284C29.5786 28.0783 30 27.0609 30 26V6C30 4.93913 29.5786 3.92172 28.8284 3.17157C28.0783 2.42143 27.0609 2 26 2ZM22.35 12.75V13.15C22.3458 14.8311 21.8885 16.4799 21.0262 17.923C20.1639 19.366 18.9285 20.5499 17.45 21.35C15.9802 22.1406 14.3278 22.5293 12.6597 22.4766C10.9916 22.4239 9.36695 21.9318 7.95 21.05H8.75C10.2331 21.045 11.6736 20.5532 12.85 19.65C12.1572 19.6406 11.485 19.4133 10.9286 19.0005C10.3722 18.5877 9.95988 18.0103 9.75 17.35C9.95 17.35 10.15 17.45 10.35 17.45C10.6535 17.4663 10.9575 17.4325 11.25 17.35C10.5116 17.2032 9.84772 16.8031 9.37299 16.2188C8.89827 15.6345 8.64254 14.9028 8.65 14.15C9.10273 14.421 9.62242 14.5596 10.15 14.55C9.4447 14.0912 8.93921 13.3825 8.73514 12.5662C8.53108 11.75 8.64357 10.8867 9.05 10.15C9.88336 11.16 10.9189 11.9842 12.0901 12.5698C13.2612 13.1554 14.542 13.4893 15.85 13.55C15.768 13.3263 15.7339 13.0878 15.75 12.85C15.7516 12.1829 15.9523 11.5315 16.3265 10.9792C16.7006 10.4269 17.2311 9.99891 17.85 9.75C18.4595 9.49714 19.1322 9.43828 19.7763 9.58144C20.4205 9.72459 21.0049 10.0628 21.45 10.55C22.203 10.4514 22.9223 10.1774 23.55 9.75C23.3211 10.502 22.8225 11.143 22.15 11.55C22.8068 11.4903 23.4489 11.3213 24.05 11.05C23.5346 11.6657 22.9657 12.2346 22.35 12.75Z" fill="#333333"/>
</svg>
