<svg width="32" height="32" viewBox="0 0 32 32" fill="none" xmlns="http://www.w3.org/2000/svg">
<path d="M24.9999 3.3999H6.9999C5.01168 3.3999 3.3999 5.01168 3.3999 6.9999V24.9999C3.3999 26.9881 5.01168 28.5999 6.9999 28.5999H24.9999C26.9881 28.5999 28.5999 26.9881 28.5999 24.9999V6.9999C28.5999 5.01168 26.9881 3.3999 24.9999 3.3999Z" fill="white"/>
<path d="M25 2H5C3.93913 2 2.92172 2.42143 2.17157 3.17157C1.42143 3.92172 1 4.93913 1 6V26C1 27.0609 1.42143 28.0783 2.17157 28.8284C2.92172 29.5786 3.93913 30 5 30H25C26.0609 30 27.0783 29.5786 27.8284 28.8284C28.5786 28.0783 29 27.0609 29 26V6C29 4.93913 28.5786 3.92172 27.8284 3.17157C27.0783 2.42143 26.0609 2 25 2ZM24.22 20.66C24.1124 21.0706 23.8986 21.4457 23.6003 21.7476C23.3019 22.0495 22.9293 22.2676 22.52 22.38C20.0247 22.6766 17.5127 22.8102 15 22.78C12.4873 22.8102 9.97531 22.6766 7.48 22.38C7.07068 22.2676 6.69813 22.0495 6.39975 21.7476C6.10136 21.4457 5.88762 21.0706 5.78 20.66C5.50408 19.1222 5.37018 17.5623 5.38 16C5.37018 14.4377 5.50408 12.8778 5.78 11.34C5.88762 10.9294 6.10136 10.5543 6.39975 10.2524C6.69813 9.95052 7.07068 9.73242 7.48 9.62C9.97531 9.32343 12.4873 9.18981 15 9.22C17.5127 9.18981 20.0247 9.32343 22.52 9.62C22.9293 9.73242 23.3019 9.95052 23.6003 10.2524C23.8986 10.5543 24.1124 10.9294 24.22 11.34C24.4959 12.8778 24.6298 14.4377 24.62 16C24.6298 17.5623 24.4959 19.1222 24.22 20.66Z" fill="#333333"/>
<path d="M14.03 18.8601L19.06 16.0001L14.03 13.1401V18.8601Z" fill="#59575C"/>
</svg>
